<?xml version="1.0" encoding="UTF-8" standalone="no"?>
<svg width="715px" height="154px" viewBox="0 0 715 154" version="1.1" xmlns="http://www.w3.org/2000/svg" xmlns:xlink="http://www.w3.org/1999/xlink" xmlns:sketch="http://www.bohemiancoding.com/sketch/ns">
    <!-- Generator: Sketch 3.2.2 (9983) - http://www.bohemiancoding.com/sketch -->
    <title>Imported Layers</title>
    <desc>Created with Sketch.</desc>
    <defs></defs>
    <g id="Page-1" stroke="none" stroke-width="1" fill="none" fill-rule="evenodd" sketch:type="MSPage">
        <g id="Imported-Layers" sketch:type="MSLayerGroup" fill="#1A2341">
            <path d="M129.632,101.573 L129.632,51.566 C132.818,50.403 135.097,47.354 135.097,43.766 C135.097,39.175 131.375,35.454 126.784,35.454 C125.012,35.454 123.373,36.013 122.023,36.958 L75.543,10.122 C75.591,9.759 75.625,9.392 75.625,9.015 C75.625,4.425 71.903,0.703 67.313,0.703 C62.722,0.703 59.001,4.425 59.001,9.015 C59.001,9.595 59.061,10.16 59.173,10.706 L14.224,36.658 C12.834,35.614 11.112,34.987 9.24,34.987 C4.649,34.987 0.928,38.709 0.928,43.299 C0.928,46.776 3.065,49.751 6.095,50.991 L6.095,103.009 C3.065,104.249 0.928,107.224 0.928,110.701 C0.928,115.291 4.649,119.013 9.24,119.013 C11.103,119.013 12.817,118.392 14.204,117.357 L59.597,143.565 C59.517,144.027 59.467,144.5 59.467,144.985 C59.467,149.575 63.188,153.297 67.779,153.297 C72.37,153.297 76.091,149.575 76.091,144.985 C76.091,144.531 76.045,144.089 75.975,143.654 L122.862,116.584 C124.137,117.379 125.638,117.847 127.251,117.847 C131.842,117.847 135.563,114.125 135.563,109.535 C135.563,105.772 133.062,102.597 129.632,101.573 L129.632,101.573 Z M87.27,101.681 C87.274,101.578 87.286,101.476 87.286,101.372 C87.286,98.471 85.798,95.921 83.546,94.434 L93.778,73.97 C94.177,74.113 94.6,74.204 95.048,74.204 C96.082,74.204 97.017,73.787 97.699,73.115 L112.906,84.979 C112.626,85.506 112.453,86.099 112.453,86.737 C112.453,88.824 114.145,90.515 116.231,90.515 C116.604,90.515 116.957,90.445 117.297,90.344 L123.062,102.364 C121.42,103.325 120.142,104.83 119.469,106.635 L87.27,101.681 L87.27,101.681 Z M67.779,136.672 C66.858,136.672 65.975,136.828 65.148,137.105 L56.915,120.296 C57.64,119.607 58.097,118.64 58.097,117.562 C58.097,115.475 56.406,113.783 54.319,113.783 C52.587,113.783 51.143,114.955 50.697,116.544 L17.409,112.204 C17.468,111.881 17.505,111.552 17.526,111.218 L71.017,103.771 C71.667,105.929 73.169,107.713 75.133,108.739 L67.82,136.675 C67.806,136.675 67.793,136.672 67.779,136.672 L67.779,136.672 Z M53.847,34.611 C54.304,36.184 55.739,37.34 57.459,37.34 C58.367,37.34 59.19,37.007 59.841,36.473 L71.533,47.234 C70.808,48.147 70.276,49.215 69.985,50.381 L17.524,43.863 C17.536,43.676 17.552,43.49 17.552,43.299 C17.552,42.683 17.48,42.084 17.353,41.506 L53.847,34.611 L53.847,34.611 Z M67.127,17.318 L74.299,44.98 C73.641,45.313 73.036,45.73 72.494,46.217 L60.741,35.399 C61.048,34.853 61.237,34.233 61.237,33.562 C61.237,32.203 60.513,31.022 59.437,30.356 L64.605,16.868 C65.399,17.141 66.245,17.298 67.127,17.318 L67.127,17.318 Z M119.01,46.684 C119.267,47.37 119.611,48.012 120.031,48.599 L97.531,67.598 C96.866,67.014 96.004,66.648 95.048,66.648 C94.407,66.648 93.812,66.823 93.283,67.105 L84.41,57.732 C85.561,56.359 86.269,54.609 86.338,52.695 L119.01,46.684 L119.01,46.684 Z M50.008,77.201 L72.316,58.411 C73.482,59.521 74.969,60.293 76.625,60.578 L77.244,93.243 C75.63,93.585 74.189,94.394 73.07,95.523 L50.227,80.468 C50.406,80.029 50.509,79.551 50.509,79.047 C50.509,78.373 50.318,77.749 50.008,77.201 L50.008,77.201 Z M80.743,93.253 L80.121,60.434 C81.356,60.115 82.479,59.526 83.422,58.724 L92.188,67.984 C91.624,68.644 91.27,69.49 91.27,70.426 C91.27,71.559 91.78,72.564 92.57,73.257 L82.316,93.764 C81.816,93.544 81.29,93.371 80.743,93.253 L80.743,93.253 Z M16.545,47.267 L69.871,53.892 C70.105,55.178 70.635,56.357 71.388,57.363 L49.107,76.131 C48.456,75.6 47.636,75.269 46.731,75.269 C45.326,75.269 44.115,76.044 43.464,77.181 L26.186,71.846 C26.225,71.629 26.254,71.408 26.254,71.179 C26.254,69.093 24.562,67.401 22.475,67.401 C22.153,67.401 21.845,67.454 21.545,67.53 L13.217,50.599 C14.621,49.832 15.78,48.673 16.545,47.267 L16.545,47.267 Z M22.475,74.957 C23.835,74.957 25.017,74.233 25.683,73.155 L43.007,78.504 C42.981,78.683 42.952,78.861 42.952,79.047 C42.952,81.134 44.644,82.825 46.731,82.825 C47.81,82.825 48.777,82.367 49.466,81.642 L72.17,96.606 C71.421,97.673 70.921,98.923 70.742,100.277 L17.006,107.758 C16.169,105.549 14.421,103.794 12.216,102.947 L21.543,74.828 C21.843,74.904 22.152,74.957 22.475,74.957 L22.475,74.957 Z M126.833,101.244 C125.954,101.288 125.112,101.466 124.325,101.763 L118.543,89.706 C119.429,89.014 120.009,87.948 120.009,86.737 C120.009,84.65 118.318,82.959 116.231,82.959 C115.29,82.959 114.44,83.315 113.779,83.885 L98.495,71.96 C98.705,71.491 98.827,70.974 98.827,70.426 C98.827,69.802 98.661,69.222 98.393,68.703 L120.934,49.668 C122.436,51.157 124.502,52.078 126.784,52.078 C126.801,52.078 126.817,52.075 126.833,52.075 L126.833,101.244 L126.833,101.244 Z M119.975,39.007 C119.129,40.216 118.601,41.66 118.5,43.221 L85.733,49.249 C84.492,46.219 81.517,44.083 78.041,44.083 C77.921,44.083 77.803,44.096 77.684,44.101 L70.571,16.663 C72.342,15.908 73.793,14.553 74.68,12.856 L119.975,39.007 L119.975,39.007 Z M63.322,16.307 L58.132,29.852 C57.913,29.812 57.689,29.784 57.459,29.784 C55.492,29.784 53.895,31.292 53.716,33.212 L16.934,40.161 C16.732,39.665 16.483,39.195 16.194,38.752 L60.22,13.334 C60.978,14.575 62.044,15.606 63.322,16.307 L63.322,16.307 Z M8.894,51.594 C9.009,51.599 9.123,51.611 9.24,51.611 C10.184,51.611 11.088,51.447 11.933,51.157 L20.277,68.118 C19.324,68.804 18.697,69.916 18.697,71.179 C18.697,72.439 19.32,73.547 20.268,74.233 L10.875,102.551 C10.346,102.446 9.8,102.389 9.24,102.389 C9.123,102.389 9.009,102.401 8.894,102.406 L8.894,51.594 L8.894,51.594 Z M16.182,115.267 C16.529,114.74 16.813,114.168 17.034,113.566 L50.579,117.94 C50.771,119.846 52.362,121.34 54.319,121.34 C54.819,121.34 55.295,121.237 55.732,121.061 L63.859,137.656 C62.475,138.398 61.329,139.522 60.553,140.885 L16.182,115.267 L16.182,115.267 Z M71.238,137.433 L78.509,109.66 C78.663,109.669 78.817,109.684 78.974,109.684 C82.227,109.684 85.037,107.81 86.402,105.087 L118.967,110.097 C119.081,111.793 119.701,113.346 120.68,114.612 L75.048,140.958 C74.19,139.412 72.853,138.174 71.238,137.433 L71.238,137.433 Z" id="Fill-1" sketch:type="MSShapeGroup"></path>
            <path d="M216.073,116.667 L216.073,42.87 L189.914,42.87 L189.914,36.63 L249.192,36.63 L249.192,42.87 L223.033,42.87 L223.033,116.667 L216.073,116.667" id="Fill-2" sketch:type="MSShapeGroup"></path>
            <path d="M307.275,76.708 C307.275,53.309 322.635,35.31 346.153,35.31 C369.553,35.31 385.032,53.309 385.032,76.708 C385.032,100.107 369.553,118.107 346.153,118.107 C322.635,118.107 307.275,100.107 307.275,76.708 L307.275,76.708 Z M377.832,76.708 C377.832,56.429 365.352,41.55 346.153,41.55 C326.834,41.55 314.474,56.429 314.474,76.708 C314.474,96.867 326.834,111.867 346.153,111.867 C365.352,111.867 377.832,96.867 377.832,76.708 L377.832,76.708 Z" id="Fill-3" sketch:type="MSShapeGroup"></path>
            <path d="M447.914,105.387 L452.354,100.227 C457.513,106.107 465.914,111.867 477.433,111.867 C493.752,111.867 498.432,102.747 498.432,95.907 C498.432,72.388 450.434,84.628 450.434,56.669 C450.434,43.59 462.193,35.31 476.713,35.31 C488.593,35.31 497.712,39.51 503.832,46.59 L499.272,51.63 C493.513,44.67 485.352,41.55 476.353,41.55 C465.674,41.55 457.634,47.67 457.634,56.309 C457.634,76.828 505.632,65.549 505.632,95.427 C505.632,105.747 498.792,118.107 477.193,118.107 C463.994,118.107 454.034,112.707 447.914,105.387" id="Fill-4" sketch:type="MSShapeGroup"></path>
            <path d="M630.071,116.667 L630.071,78.628 L579.312,78.628 L579.312,116.667 L572.474,116.667 L572.474,36.63 L579.312,36.63 L579.312,72.388 L630.071,72.388 L630.071,36.63 L636.91,36.63 L636.91,116.667 L630.071,116.667" id="Fill-5" sketch:type="MSShapeGroup"></path>
            <path d="M707.232,36.63 L714.072,36.63 L714.072,116.667 L707.232,116.667 L707.232,36.63 Z" id="Fill-6" sketch:type="MSShapeGroup"></path>
        </g>
    </g>
</svg>